<svg width="440" height="280" viewBox="0 0 440 280" fill="none" xmlns="http://www.w3.org/2000/svg">
  <rect width="440" height="280" rx="28" fill="#0B1211"/>
  <rect x="12" y="12" width="416" height="256" rx="20" fill="url(#bgGlow)" fill-opacity="0.42"/>
  <g opacity="0.9">
    <rect x="246" y="34" width="154" height="96" rx="18" fill="#121D1B" stroke="#243735"/>
    <rect x="266" y="57" width="78" height="10" rx="5" fill="#EDE7D9" fill-opacity="0.92"/>
    <rect x="266" y="77" width="110" height="8" rx="4" fill="#79968E" fill-opacity="0.42"/>
    <rect x="266" y="98" width="53" height="18" rx="9" fill="#72E06A" fill-opacity="0.16" stroke="#72E06A"/>
  </g>
  <g opacity="0.94">
    <rect x="220" y="146" width="182" height="96" rx="18" fill="#121D1B" stroke="#243735"/>
    <rect x="240" y="168" width="120" height="8" rx="4" fill="#EDE7D9" fill-opacity="0.92"/>
    <rect x="240" y="188" width="140" height="8" rx="4" fill="#79968E" fill-opacity="0.42"/>
    <rect x="240" y="211" width="70" height="14" rx="7" fill="#72E06A" fill-opacity="0.14" stroke="#72E06A"/>
    <rect x="318" y="211" width="52" height="14" rx="7" fill="#EDE7D9" fill-opacity="0.06" stroke="#41524D"/>
  </g>
  <g>
    <rect x="40" y="44" width="88" height="88" rx="22" fill="#0E1514"/>
    <rect x="41.5" y="45.5" width="85" height="85" rx="20.5" stroke="#DCE7E1" stroke-opacity="0.18" stroke-width="3"/>
    <path d="M105 69.5C99 64.3 91.1 61.3 82.7 61.3C64.5 61.3 49.7 76 49.7 94.2C49.7 112.4 64.5 127.2 82.7 127.2C94.8 127.2 105.4 120.7 111.2 111" stroke="#72E06A" stroke-width="14" stroke-linecap="round" stroke-linejoin="round"/>
    <path d="M109.6 94H84.3" stroke="#72E06A" stroke-width="14" stroke-linecap="round"/>
    <path d="M71.7 80.8L92.6 94L71.7 107.1V80.8Z" fill="#F4F1E8"/>
  </g>
  <text x="40" y="170" fill="#EDE7D9" font-size="32" font-weight="700" font-family="Avenir Next, Inter, Arial, sans-serif">Ex Grok</text>
  <text x="40" y="198" fill="#8FA6A0" font-size="15" font-weight="500" font-family="Avenir Next, Inter, Arial, sans-serif">Queue and automate Grok video workflows</text>
  <text x="40" y="226" fill="#72E06A" font-size="14" font-weight="700" font-family="Avenir Next, Inter, Arial, sans-serif">Sequential batches. Branded control surface.</text>
  <defs>
    <radialGradient id="bgGlow" cx="0" cy="0" r="1" gradientUnits="userSpaceOnUse" gradientTransform="translate(352 62) rotate(123.455) scale(249.33 270.537)">
      <stop stop-color="#17322D"/>
      <stop offset="1" stop-color="#17322D" stop-opacity="0"/>
    </radialGradient>
  </defs>
</svg>